<?xml version="1.0" standalone="no"?>
<!DOCTYPE svg PUBLIC "-//W3C//DTD SVG 20010904//EN"
 "http://www.w3.org/TR/2001/REC-SVG-20010904/DTD/svg10.dtd">
<svg version="1.0" xmlns="http://www.w3.org/2000/svg"
 width="700.000000pt" height="700.000000pt" viewBox="0 0 700.000000 700.000000"
 preserveAspectRatio="xMidYMid meet">
<metadata>
Created by potrace 1.11, written by Peter Selinger 2001-2013
</metadata>
<g transform="translate(0.000000,700.000000) scale(0.100000,-0.100000)"
fill="#000000" stroke="none">
<path d="M4822 6120 c-4 -3 -8 -593 -7 -1313 l0 -1307 225 2 225 3 0 1310 0
1310 -218 0 c-120 0 -221 -2 -225 -5z"/>
<path d="M1744 2621 c-6 -7 -5 -1055 3 -1427 l6 -330 1749 0 1748 0 0 223 c0
123 3 223 8 223 4 0 7 296 7 658 l0 657 -218 0 c-138 0 -221 -3 -225 -10 -4
-5 -7 -296 -8 -645 -1 -349 -2 -640 -3 -646 -1 -9 -341 -12 -1311 -12 l-1310
0 0 657 0 657 -221 0 c-121 0 -222 -2 -225 -5z"/>
</g>
</svg>
